<svg width="243" height="70" viewBox="0 0 243 70" fill="none" xmlns="http://www.w3.org/2000/svg">
<g clip-path="url(#clip0_15_137)">
<path d="M4.18909 19.5207L31 4.04144L57.8109 19.5207V50.4793L31 65.9585L4.18909 50.4793V19.5207Z" stroke="#EEEEFF" stroke-width="7"/>
<path d="M81.7017 51H69.1094V18.2727H81.5739C84.9403 18.2727 87.8487 18.9279 90.299 20.2383C92.7599 21.538 94.6563 23.413 95.9879 25.8633C97.3303 28.3029 98.0014 31.2273 98.0014 34.6364C98.0014 38.0455 97.3356 40.9751 96.0039 43.4254C94.6722 45.8651 92.7866 47.7401 90.3469 49.0504C87.9073 50.3501 85.0256 51 81.7017 51ZM77.9943 43.4574H81.3821C83.0014 43.4574 84.381 43.1964 85.521 42.6744C86.6715 42.1523 87.5451 41.2521 88.1417 39.9737C88.7489 38.6953 89.0526 36.9162 89.0526 34.6364C89.0526 32.3565 88.7436 30.5774 88.1257 29.299C87.5185 28.0206 86.6236 27.1204 85.4411 26.5984C84.2692 26.0763 82.831 25.8153 81.1264 25.8153H77.9943V43.4574ZM102.112 51V18.2727H125.699V25.4318H110.997V31.0568H124.484V38.2159H110.997V43.8409H125.635V51H102.112ZM130.105 51V18.2727H153.692V25.4318H138.99V31.0568H152.478V38.2159H138.99V43.8409H153.628V51H130.105Z" fill="white"/>
<path d="M170.691 51H158.099V18.2727H170.563C173.93 18.2727 176.838 18.9279 179.288 20.2383C181.749 21.538 183.646 23.413 184.977 25.8633C186.32 28.3029 186.991 31.2273 186.991 34.6364C186.991 38.0455 186.325 40.9751 184.993 43.4254C183.661 45.8651 181.776 47.7401 179.336 49.0504C176.897 50.3501 174.015 51 170.691 51ZM166.984 43.4574H170.371C171.991 43.4574 173.37 43.1964 174.51 42.6744C175.661 42.1523 176.534 41.2521 177.131 39.9737C177.738 38.6953 178.042 36.9162 178.042 34.6364C178.042 32.3565 177.733 30.5774 177.115 29.299C176.508 28.0206 175.613 27.1204 174.43 26.5984C173.258 26.0763 171.82 25.8153 170.116 25.8153H166.984V43.4574ZM202.991 51.4474C200.37 51.4474 198.112 50.9467 196.215 49.9453C194.33 48.9332 192.875 47.4844 191.853 45.5987C190.841 43.7024 190.335 41.4332 190.335 38.7912C190.335 36.2557 190.846 34.0398 191.869 32.1435C192.891 30.2472 194.335 28.7717 196.199 27.717C198.064 26.6623 200.263 26.1349 202.799 26.1349C204.653 26.1349 206.331 26.4226 207.833 26.9979C209.335 27.5732 210.619 28.4094 211.684 29.5067C212.749 30.5934 213.57 31.9144 214.145 33.4698C214.72 35.0252 215.008 36.7777 215.008 38.7273V40.7727H193.083V35.9148H206.89C206.879 35.2116 206.698 34.5937 206.347 34.0611C206.006 33.5178 205.542 33.0969 204.956 32.7987C204.381 32.4897 203.726 32.3352 202.991 32.3352C202.277 32.3352 201.622 32.4897 201.025 32.7987C200.429 33.0969 199.949 33.5124 199.587 34.0451C199.235 34.5778 199.049 35.201 199.028 35.9148V41.1562C199.028 41.9446 199.193 42.6477 199.523 43.2656C199.853 43.8835 200.327 44.3683 200.945 44.7198C201.563 45.0714 202.309 45.2472 203.183 45.2472C203.79 45.2472 204.344 45.1619 204.844 44.9915C205.356 44.821 205.793 44.576 206.155 44.2564C206.517 43.9261 206.783 43.532 206.954 43.0739H215.008C214.731 44.7784 214.076 46.2592 213.042 47.5163C212.009 48.7628 210.64 49.7322 208.935 50.4247C207.241 51.1065 205.26 51.4474 202.991 51.4474ZM242.729 26.4545L234.484 51H224.256L216.011 26.4545H225.279L229.242 42.6903H229.498L233.461 26.4545H242.729Z" fill="#EEEEFF"/>
</g>
<defs>
<clipPath id="clip0_15_137">
<rect width="243" height="70" fill="white"/>
</clipPath>
</defs>
</svg>
